G04*
G04 #@! TF.GenerationSoftware,Altium Limited,Altium Designer,25.1.2 (22)*
G04*
G04 Layer_Physical_Order=1*
G04 Layer_Color=255*
%FSLAX25Y25*%
%MOIN*%
G70*
G04*
G04 #@! TF.SameCoordinates,ABA52730-9CE8-426A-81FB-CFFF77E3DBF9*
G04*
G04*
G04 #@! TF.FilePolarity,Positive*
G04*
G01*
G75*
%ADD10R,0.06528X0.04739*%
%ADD11C,0.02000*%
%ADD12C,0.08000*%
G04:AMPARAMS|DCode=13|XSize=80mil|YSize=80mil|CornerRadius=20mil|HoleSize=0mil|Usage=FLASHONLY|Rotation=180.000|XOffset=0mil|YOffset=0mil|HoleType=Round|Shape=RoundedRectangle|*
%AMROUNDEDRECTD13*
21,1,0.08000,0.04000,0,0,180.0*
21,1,0.04000,0.08000,0,0,180.0*
1,1,0.04000,-0.02000,0.02000*
1,1,0.04000,0.02000,0.02000*
1,1,0.04000,0.02000,-0.02000*
1,1,0.04000,-0.02000,-0.02000*
%
%ADD13ROUNDEDRECTD13*%
G04:AMPARAMS|DCode=14|XSize=80mil|YSize=80mil|CornerRadius=20mil|HoleSize=0mil|Usage=FLASHONLY|Rotation=90.000|XOffset=0mil|YOffset=0mil|HoleType=Round|Shape=RoundedRectangle|*
%AMROUNDEDRECTD14*
21,1,0.08000,0.04000,0,0,90.0*
21,1,0.04000,0.08000,0,0,90.0*
1,1,0.04000,0.02000,0.02000*
1,1,0.04000,0.02000,-0.02000*
1,1,0.04000,-0.02000,-0.02000*
1,1,0.04000,-0.02000,0.02000*
%
%ADD14ROUNDEDRECTD14*%
%ADD15R,0.08000X0.08000*%
D10*
X421500Y385044D02*
D03*
Y375000D02*
D03*
X431500Y385022D02*
D03*
Y374978D02*
D03*
D11*
X337750Y416250D02*
X338000Y416500D01*
X292250Y416250D02*
X337750D01*
X292000Y416000D02*
X292250Y416250D01*
X337750Y426250D02*
X338000Y426500D01*
X292250Y426250D02*
X337750D01*
X292000Y426000D02*
X292250Y426250D01*
X456000Y199000D02*
Y282000D01*
X423500Y166500D02*
X456000Y199000D01*
X413000Y156000D02*
X423500Y166500D01*
X316500Y156000D02*
X413000D01*
X268500Y204000D02*
X316500Y156000D01*
X268500Y204000D02*
Y309000D01*
X274500Y315000D01*
X287653D01*
X296358Y306295D01*
X278642Y214358D02*
Y280705D01*
Y214358D02*
X316500Y176500D01*
X323500D01*
X296358Y306295D02*
Y351358D01*
X325000Y380000D01*
X338500D01*
Y395000D01*
X400000Y456500D02*
X408000D01*
X338500Y395000D02*
X400000Y456500D01*
X427000Y394500D02*
X431500Y390000D01*
X363000Y394500D02*
X427000D01*
X431500Y385022D02*
Y390000D01*
Y332500D02*
Y374978D01*
X423500Y326500D02*
X424262Y327262D01*
X426262D01*
X431500Y332500D01*
X413500Y346500D02*
X423500Y336500D01*
X413500Y346500D02*
Y367000D01*
X419236Y372736D01*
Y373630D01*
X420605Y375000D01*
X421500D01*
X348500Y380000D02*
X363000Y394500D01*
X368500Y380000D02*
X378000Y389500D01*
X416150D01*
X420605Y385044D01*
X421500D01*
X408500Y380000D02*
X438000D01*
X453500Y364500D01*
X378500Y285500D02*
Y380000D01*
X339500Y246500D02*
X378500Y285500D01*
X323500Y246500D02*
X339500D01*
X404500Y196500D02*
X423500D01*
X388500Y212500D02*
X404500Y196500D01*
X388500Y212500D02*
Y380000D01*
X413000Y206500D02*
X423500D01*
X398500Y221000D02*
X413000Y206500D01*
X398500Y221000D02*
Y380000D01*
X408000Y446500D02*
X431500D01*
X468500Y409500D01*
Y351000D02*
Y409500D01*
X462000Y344500D02*
X468500Y351000D01*
X453500Y344500D02*
X462000D01*
X443500Y335500D02*
Y354500D01*
X453402Y364402D01*
X443500Y335500D02*
X449000Y330000D01*
X461500D01*
X473000Y318500D01*
Y297500D02*
Y318500D01*
X467500Y292000D02*
X473000Y297500D01*
X456000Y292000D02*
X467500D01*
X423500Y316500D02*
X428000Y312000D01*
X456000D01*
X423500Y306500D02*
X428000Y302000D01*
X456000D01*
X323500Y356500D02*
X335000D01*
X358500Y380000D01*
D12*
D03*
X378500D02*
D03*
X398500D02*
D03*
X388500D02*
D03*
X368500D02*
D03*
X348500D02*
D03*
X338500D02*
D03*
X292000Y426000D02*
D03*
X296358Y306295D02*
D03*
X278642D02*
D03*
X296358Y280705D02*
D03*
X456000Y292000D02*
D03*
Y302000D02*
D03*
Y312000D02*
D03*
X453500Y364500D02*
D03*
Y354500D02*
D03*
Y374500D02*
D03*
Y384500D02*
D03*
X338000Y426500D02*
D03*
X408000Y456500D02*
D03*
X423500Y196500D02*
D03*
Y206500D02*
D03*
Y246500D02*
D03*
Y266500D02*
D03*
Y296500D02*
D03*
Y336500D02*
D03*
Y346500D02*
D03*
Y326500D02*
D03*
Y316500D02*
D03*
Y306500D02*
D03*
Y286500D02*
D03*
Y276500D02*
D03*
Y256500D02*
D03*
Y236500D02*
D03*
Y226500D02*
D03*
Y216500D02*
D03*
Y186500D02*
D03*
Y176500D02*
D03*
Y166500D02*
D03*
X323500Y196500D02*
D03*
Y206500D02*
D03*
Y246500D02*
D03*
Y266500D02*
D03*
Y296500D02*
D03*
Y336500D02*
D03*
Y346500D02*
D03*
Y326500D02*
D03*
Y316500D02*
D03*
Y306500D02*
D03*
Y286500D02*
D03*
Y276500D02*
D03*
Y256500D02*
D03*
Y236500D02*
D03*
Y226500D02*
D03*
Y216500D02*
D03*
Y186500D02*
D03*
Y176500D02*
D03*
Y166500D02*
D03*
D13*
X408500Y380000D02*
D03*
D14*
X292000Y416000D02*
D03*
X456000Y282000D02*
D03*
X453500Y344500D02*
D03*
X338000Y416500D02*
D03*
X408000Y446500D02*
D03*
X423500Y356500D02*
D03*
X323500D02*
D03*
D15*
X278642Y280705D02*
D03*
M02*
