M48
;Layer_Color=9474304
;FILE_FORMAT=4:4
METRIC,LZ
;TYPE=PLATED
T01F00S00C1.0000
T02F00S00C1.0200
T03F00S00C1.1000
%
T01
X0070775Y0071299
X0075275
Y0077799
X0070775
T02
X0082169Y0042291
Y0044831
Y0047371
Y0049911
Y0052451
Y0054991
Y0057531
Y0060071
Y0062611
Y0065151
Y0067691
Y0070231
Y0072771
Y0075311
Y0077851
X0107569
Y0075311
Y0072771
Y0070231
Y0067691
Y0065151
Y0062611
Y0060071
Y0057531
Y0054991
Y0052451
Y0049911
Y0047371
Y0044831
Y0042291
Y0080391
Y0082931
Y0085471
Y0088011
Y0090551
X0082169
Y0088011
Y0085471
Y0082931
Y0080391
T03
X0115824Y0071628
Y0074168
Y0076708
Y0079248
X0074168Y0105664
Y0108204
X0085852Y0108331
Y0105791
X0085979Y009652
X0088519
X0091059
X0093599
X0096139
X0098679
X0101219
X0103759
X0115189Y0097663
Y0095123
Y0092583
Y0090043
Y0087503
X0103632Y0113411
Y0115951
M30
